PathFileType	4	(X/Y/Z)	C:/Users/opensim2020/Desktop/walking_exp_matlab/subject01_walking13_straight_01.trc	
DataRate	CameraRate	NumFrames	NumMarkers	Units	OrigDataRate	OrigDataStartFrame	OrigNumFrames	
100.00	100.00	4	42	mm	100.00	655	142	
Frame#	Time	LFHD			RFHD			LBHD			RBHD			C7			T10			CLAV			STRN			RBAK			LSHO			LUPA			LELB			LFRM			LWRA			LWRB			LFIN			RSHO			RUPA			RELB			RFRM			RWRA			RWRB			RFIN			LASI			RASI			LPSI			RPSI			LTHI			LKNE			LTIB			LANK			LHEE			LTOE			RTHI			RKNE			RTIB			RANK			RHEE			RTOE			*39			*40			*41			
		X1	Y1	Z1	X2	Y2	Z2	X3	Y3	Z3	X4	Y4	Z4	X5	Y5	Z5	X6	Y6	Z6	X7	Y7	Z7	X8	Y8	Z8	X9	Y9	Z9	X10	Y10	Z10	X11	Y11	Z11	X12	Y12	Z12	X13	Y13	Z13	X14	Y14	Z14	X15	Y15	Z15	X16	Y16	Z16	X17	Y17	Z17	X18	Y18	Z18	X19	Y19	Z19	X20	Y20	Z20	X21	Y21	Z21	X22	Y22	Z22	X23	Y23	Z23	X24	Y24	Z24	X25	Y25	Z25	X26	Y26	Z26	X27	Y27	Z27	X28	Y28	Z28	X29	Y29	Z29	X30	Y30	Z30	X31	Y31	Z31	X32	Y32	Z32	X33	Y33	Z33	X34	Y34	Z34	X35	Y35	Z35	X36	Y36	Z36	X37	Y37	Z37	X38	Y38	Z38	X39	Y39	Z39	X40	Y40	Z40	X41	Y41	Z41	X42	Y42	Z42	

54	0.530	-1076.91553	1.27029	1668.03833	-965.71216	22.33206	1672.94482	-1061.35315	-116.37338	1630.69495	-942.14648	-96.92406	1634.68896	-1012.80322	-161.58015	1439.10217	-1001.94031	-213.30977	1147.53101	-1022.09106	-21.63672	1363.73511	-1029.67334	12.71305	1207.03784	-927.90869	-222.23068	1248.35925	-1176.75745	-97.32788	1397.41724	-1258.41614	-165.96617	1225.29956	-1265.72522	-200.49913	1076.44946	-1288.75598	-158.19882	966.79279	-1271.15991	-71.02077	857.97430	-1290.32166	-126.87949	848.60718	-1303.41577	-76.88586	782.09790	-867.45984	-74.65940	1397.14990	-754.50684	-127.34071	1202.98755	-745.09802	-118.91212	1074.91638	-739.57660	-35.00937	978.91284	-793.13214	84.22977	921.48694	-748.29828	56.36121	897.93805	-764.97028	127.35710	853.81036	-1118.74683	-51.44003	935.27881	-900.30371	-50.55451	929.40686	-1067.03821	-236.13585	951.70398	-923.13940	-235.62955	958.24347	-1197.50146	5.60090	628.53503	-1181.02173	32.90339	495.89841	-1189.74805	-1.19723	309.45151	-1142.89502	5.24699	85.57836	-1082.77966	-27.02151	51.19989	-1164.67163	148.93314	66.32957	-860.06287	-163.59840	604.18811	-892.10004	-189.18149	447.37317	-893.49445	-275.39655	293.57336	-949.63995	-341.19211	99.50013	-1000.38873	-397.47232	75.52571	-952.72333	-212.62198	33.41825	-987.57428	11.64034	1707.34460	-3102.10889	1973.04138	1024.06531	-3140.70996	2012.44153	1022.09253 
55	0.540	-1077.65015	14.73353	1666.03357	-966.06812	35.84527	1670.94934	-1062.04285	-103.05271	1629.24255	-942.90900	-83.63277	1633.26965	-1013.23706	-149.14049	1437.74500	-1002.77631	-201.06525	1146.04358	-1022.67511	-9.20501	1361.99304	-1030.00220	24.82611	1205.28333	-928.23926	-209.97328	1247.02075	-1177.34924	-84.89635	1395.73328	-1258.59326	-154.84352	1223.83057	-1264.95874	-190.70901	1075.30627	-1287.78308	-150.54288	964.96063	-1269.98596	-65.54536	854.37378	-1289.10730	-121.61932	846.14087	-1302.06006	-73.21164	778.49402	-867.95123	-62.07353	1395.73401	-754.53058	-113.98348	1201.75073	-744.82373	-104.57092	1073.71887	-740.30322	-18.84155	979.58466	-795.06433	101.30704	925.56738	-750.10474	74.41399	901.02557	-767.36566	146.11736	858.90594	-1118.86816	-38.27388	933.87122	-900.25806	-38.70280	928.22516	-1068.02893	-223.52039	949.71204	-924.44818	-223.59915	956.61707	-1197.50269	16.61630	625.44867	-1179.28333	45.59816	493.78357	-1190.33826	21.52859	307.30875	-1145.33875	42.24150	83.19219	-1086.05151	10.70609	46.32075	-1164.14905	187.39441	71.83448	-859.80737	-155.26167	604.11591	-891.79852	-182.46771	447.24133	-893.22632	-271.37823	294.61429	-949.31903	-340.02817	101.49641	-999.98309	-396.16187	78.04700	-952.65033	-212.51781	33.36853	-988.43835	25.25251	1705.45386	-3101.83789	1973.08936	1023.43988	-3140.72925	2012.55261	1022.10425 
56	0.550	-1078.54968	28.18430	1663.84570	-967.25861	49.34631	1668.89160	-1062.87524	-89.73355	1627.61377	-943.73529	-70.31976	1631.70630	-1013.81091	-136.56726	1436.12146	-1003.56390	-188.75951	1144.35205	-1023.26361	3.24132	1360.19287	-1030.38672	37.05318	1203.46216	-928.60962	-197.53026	1245.58960	-1177.97705	-72.40416	1393.99109	-1258.77588	-143.53381	1222.22180	-1264.43225	-180.65184	1074.07544	-1286.92615	-142.45909	963.04199	-1268.81165	-59.57544	850.75848	-1287.96411	-115.82140	843.76337	-1300.87585	-68.91788	775.08423	-868.55231	-49.32060	1394.23291	-754.69086	-100.44595	1200.50513	-744.53009	-90.51453	1072.41553	-741.02966	-2.83149	980.21600	-796.89636	118.21767	929.48370	-752.12433	92.06282	903.86816	-769.93805	165.07695	864.12061	-1119.02527	-24.81003	932.34906	-900.24506	-26.59769	926.98090	-1069.23560	-210.52950	947.75922	-925.69653	-211.29340	955.17804	-1197.27332	27.06032	621.81750	-1177.67102	58.41769	491.58792	-1190.63428	44.01465	305.63892	-1147.41772	77.74955	82.07635	-1089.04797	46.96008	43.16488	-1163.27539	223.98485	78.22627	-859.57697	-146.45729	603.80707	-891.46558	-175.57591	446.88977	-892.80798	-267.05688	295.83792	-948.65350	-338.49692	103.71675	-999.31903	-394.93246	81.00045	-952.60321	-212.51915	33.38915	-989.30682	38.86140	1703.36121	-3101.90161	1973.10889	1023.38562	-3140.69067	2012.40930	1021.91608 
57	0.560	-1079.47791	41.70382	1661.67371	-967.60529	62.77217	1666.67334	-1063.76611	-76.40665	1625.88147	-944.56293	-56.95620	1630.03735	-1014.41925	-124.14298	1434.37427	-1004.60382	-176.27879	1142.45520	-1024.00085	15.78872	1358.31348	-1030.90540	49.50672	1201.67822	-929.09528	-185.03995	1243.91492	-1178.66833	-59.87825	1392.12500	-1259.12708	-132.12639	1220.56519	-1263.98645	-170.32707	1072.73767	-1286.19250	-133.98820	961.07422	-1267.80811	-52.95118	847.46082	-1287.00513	-109.48209	841.45264	-1299.67053	-64.03194	771.77325	-869.37531	-36.59277	1392.66650	-755.02258	-86.99664	1199.32190	-744.36786	-76.46095	1071.16455	-741.90155	13.09438	980.70160	-798.76556	134.65848	933.14484	-754.22241	109.56310	906.65759	-772.22882	183.17134	868.88580	-1119.18628	-11.15577	930.69269	-900.95911	-14.17338	925.85480	-1070.68738	-197.25204	945.76318	-927.21277	-198.87415	953.73627	-1197.13049	37.29630	617.87170	-1176.45190	71.48557	489.57339	-1190.62561	66.00605	304.46893	-1148.77393	111.16925	82.18780	-1090.98560	81.50222	41.38606	-1162.22046	258.11279	84.91013	-859.25848	-137.43112	603.35333	-891.08887	-168.07428	446.55527	-892.33350	-262.19257	296.93552	-948.23828	-336.90762	105.73747	-998.78735	-393.55209	84.28378	-952.41791	-212.14497	33.24064	-990.17944	52.49794	1701.18103	-3102.01392	1973.08972	1024.01892	-3140.66016	2012.50195	1022.11981 
